<svg xmlns="http://www.w3.org/2000/svg" viewBox="0 0 46.418 49.333"><defs><style>.a{fill:#2bc998;}.b{fill:none;}.c{fill:rgba(43,201,152,0.57);}</style></defs><g transform="translate(0 0)"><g transform="translate(0 0)"><path class="a" d="M46.417,18.885V15.995c0-.008,0-.016,0-.024a1.467,1.467,0,0,0-.574-1.155l-.044-.032-.019-.014L23.931.221a1.292,1.292,0,0,0-1.444,0L.638,14.77l-.019.014-.044.032a1.459,1.459,0,0,0-.569,1.059c0,.032,0,.064,0,.1,0,.008,0,.016,0,.024v2.891A4.25,4.25,0,0,0,3.688,23.2a40.751,40.751,0,0,0,0,17.481A4.25,4.25,0,0,0,0,45v2.891a1.4,1.4,0,0,0,1.36,1.445h43.7a1.4,1.4,0,0,0,1.36-1.445V45a4.25,4.25,0,0,0-3.688-4.315,40.751,40.751,0,0,0,0-17.481A4.25,4.25,0,0,0,46.417,18.885ZM23.209,3.151l17.117,11.4H6.091ZM43.7,45v1.445H2.72V45a1.406,1.406,0,0,1,1.36-1.445H42.338A1.406,1.406,0,0,1,43.7,45ZM6.482,23.221h.634a37.682,37.682,0,0,1,0,17.44H6.482A37.682,37.682,0,0,1,6.482,23.221ZM9.915,23.2h4.738a40.751,40.751,0,0,0,0,17.44H9.915A40.751,40.751,0,0,0,9.915,23.2Zm7.537.019h.634a37.682,37.682,0,0,1,0,17.44h-.634A37.682,37.682,0,0,1,17.452,23.221Zm3.433-.019h4.647a40.84,40.84,0,0,0,0,17.459H20.885A40.84,40.84,0,0,0,20.885,23.2Zm7.446.019h.634a37.682,37.682,0,0,1,0,17.44h-.634A37.682,37.682,0,0,1,28.331,23.221Zm3.433-.019H36.5a40.84,40.84,0,0,0,0,17.459H31.764A40.84,40.84,0,0,0,31.764,23.2Zm7.537.019h.634a37.682,37.682,0,0,1,0,17.44H39.3A37.682,37.682,0,0,1,39.3,23.221Zm4.4-4.336a1.406,1.406,0,0,1-1.36,1.445H4.08a1.406,1.406,0,0,1-1.36-1.445V17.44H43.7Z" transform="translate(0 0)"/><path class="b" d="M3.895,14.925,23.488,1.833,44.073,15.54H2.655Z" transform="translate(-0.364 -0.152)"/><path class="b" d="M1.7,18.119l.661,4.042H44.189l1.075-4.042Z" transform="translate(-0.233 -1.501)"/><path class="b" d="M1.7,46.572l.5,5.1H44.685v-5.1Z" transform="translate(-0.233 -3.858)"/><path class="c" d="M6.757,23.963s-4.63,20.3.5,19.945S8.41,23.963,8.41,23.963Z" transform="translate(-0.663 -1.985)"/><path class="c" d="M6.757,23.963s-4.63,20.3.5,19.945S8.41,23.963,8.41,23.963Z" transform="translate(10.555 -1.985)"/><path class="c" d="M6.757,23.963s-4.63,20.3.5,19.945S8.41,23.963,8.41,23.963Z" transform="translate(20.911 -1.985)"/><path class="c" d="M6.757,23.963s-4.63,20.3.5,19.945S8.41,23.963,8.41,23.963Z" transform="translate(32.129 -1.985)"/></g><g transform="translate(21.849 8.768)"><ellipse class="a" cx="1.36" cy="1.445" rx="1.36" ry="1.445"/></g></g></svg>