<svg xmlns="http://www.w3.org/2000/svg" viewBox="0 0 47.877 42.079"><defs><style>.a{fill:#2bc998;}.b{fill:rgba(43,201,152,0.57);}.c{fill:#7ad4b8;}.d{fill:#7de1c2;}</style></defs><g transform="translate(0 -31)"><g transform="translate(0 31)"><path class="a" d="M43.669,31H9.818a4.213,4.213,0,0,0-4.208,4.208v7.013h-1.4A4.213,4.213,0,0,0,0,46.429V68.871a4.213,4.213,0,0,0,4.208,4.208h33.85a4.213,4.213,0,0,0,4.208-4.208V61.858h1.4a4.213,4.213,0,0,0,4.208-4.208V35.208A4.213,4.213,0,0,0,43.669,31ZM39.461,68.871a1.4,1.4,0,0,1-1.4,1.4H4.208a1.4,1.4,0,0,1-1.4-1.4V56.247H39.461Zm0-15.429H2.805V50.637H39.461Zm0-5.611H2.805v-1.4a1.4,1.4,0,0,1,1.4-1.4h33.85a1.4,1.4,0,0,1,1.4,1.4Zm5.611,9.818a1.4,1.4,0,0,1-1.4,1.4h-1.4V46.429a4.213,4.213,0,0,0-4.208-4.208H8.416V35.208a1.4,1.4,0,0,1,1.4-1.4h33.85a1.4,1.4,0,0,1,1.4,1.4Z" transform="translate(0 -31)"/></g><rect class="a" width="13.993" height="2.665" rx="1.333" transform="translate(22.56 61.523)"/><rect class="b" width="37.982" height="5.331" transform="translate(1.903 49.529)"/><circle class="c" cx="3.665" cy="3.665" r="3.665" transform="translate(5.235 59.524)"/><circle class="d" cx="3.665" cy="3.665" r="3.665" transform="translate(9.233 59.524)"/></g></svg>