<svg xmlns="http://www.w3.org/2000/svg" viewBox="5927 5458 46 46">
  <defs>
    <style>
      .cls-1 {
        fill: rgba(43,201,152,0.57);
      }

      .cls-2 {
        fill: #fff;
      }
    </style>
  </defs>
  <g id="G_" data-name="G+" transform="translate(5493 1914)">
    <circle id="Ellipse_4" data-name="Ellipse 4" class="cls-1" cx="23" cy="23" r="23" transform="translate(434 3544)"/>
    <path id="google-plus" class="cls-2" d="M17.829,172.306a9.587,9.587,0,0,1-1.079,4.6,7.783,7.783,0,0,1-3.077,3.151,9.1,9.1,0,0,1-4.578,1.135,8.923,8.923,0,0,1-3.536-.72A8.9,8.9,0,0,1,.72,175.631a9.048,9.048,0,0,1,0-7.072,8.9,8.9,0,0,1,4.839-4.839A8.923,8.923,0,0,1,9.095,163a8.6,8.6,0,0,1,6.092,2.382l-2.469,2.37a5.009,5.009,0,0,0-3.623-1.4,5.433,5.433,0,0,0-2.823.769,5.8,5.8,0,0,0,0,9.951,5.433,5.433,0,0,0,2.823.769,5.993,5.993,0,0,0,1.892-.285,4.8,4.8,0,0,0,1.421-.713,5.172,5.172,0,0,0,.974-.974,4.446,4.446,0,0,0,.608-1.03,4.605,4.605,0,0,0,.267-.918H9.095v-3.127h8.586A8.086,8.086,0,0,1,17.829,172.306Zm10.757-1.514V173.4H25.993v2.593H23.388V173.4H20.795v-2.606h2.593V168.2h2.606v2.593Z" transform="translate(443.707 3395.541)"/>
  </g>
</svg>
