<svg xmlns="http://www.w3.org/2000/svg" viewBox="5993 5458 46 46">
  <defs>
    <style>
      .cls-1 {
        fill: rgba(43,201,152,0.57);
      }

      .cls-2 {
        fill: #fff;
      }
    </style>
  </defs>
  <g id="Mail" transform="translate(5493 1914)">
    <circle id="Ellipse_4" data-name="Ellipse 4" class="cls-1" cx="23" cy="23" r="23" transform="translate(500 3544)"/>
    <path id="envelope" class="cls-2" d="M20.09,261.09v8.9a1.8,1.8,0,0,1-1.794,1.794H1.794a1.727,1.727,0,0,1-1.267-.527A1.727,1.727,0,0,1,0,269.991v-8.9a5.945,5.945,0,0,0,1.132.975q4.058,2.758,5.572,3.868.639.471,1.037.734a6.407,6.407,0,0,0,1.059.538,3.231,3.231,0,0,0,1.233.275h.022a3.231,3.231,0,0,0,1.233-.275,6.406,6.406,0,0,0,1.059-.538q.4-.263,1.037-.734,1.906-1.379,5.583-3.868A6.184,6.184,0,0,0,20.09,261.09Zm0-3.3a2.963,2.963,0,0,1-.549,1.693,5.33,5.33,0,0,1-1.368,1.379l-5.247,3.644q-.112.078-.476.342t-.605.426q-.241.163-.583.364a3.4,3.4,0,0,1-.645.3,1.782,1.782,0,0,1-.561.1h-.022a1.782,1.782,0,0,1-.561-.1,3.394,3.394,0,0,1-.645-.3q-.342-.2-.583-.364t-.605-.426q-.364-.263-.476-.342-1.02-.718-2.937-2.046t-2.3-1.6a5.567,5.567,0,0,1-1.312-1.295A2.618,2.618,0,0,1,0,258.04a2.263,2.263,0,0,1,.465-1.457A1.6,1.6,0,0,1,1.794,256H18.3a1.809,1.809,0,0,1,1.794,1.794Z" transform="translate(512.788 3303.548)"/>
  </g>
</svg>
