<svg xmlns="http://www.w3.org/2000/svg" viewBox="0 0 55.955 52.28"><defs><style>.a{fill:#2bc998;}</style></defs><g transform="translate(0.001 -16.814)"><g transform="translate(0 16.814)"><path class="a" d="M55.913,36.572a.826.826,0,0,0-.052-.284,1.428,1.428,0,0,0-.563-.8l-8.01-5.568V23.955a1.433,1.433,0,0,0-1.433-1.433H36.64L28.8,17.071a1.432,1.432,0,0,0-1.632,0l-7.891,5.454H10.1a1.433,1.433,0,0,0-1.433,1.433v5.9L.619,35.416A1.43,1.43,0,0,0,0,36.575c0,.008,0,.016,0,.025L.043,67.664a1.433,1.433,0,0,0,1.433,1.431h0l53.047-.073a1.433,1.433,0,0,0,1.431-1.435Zm-8.625-3.158L51.867,36.6,47.288,39.78ZM27.979,19.991l3.64,2.531h-7.3Zm-16.445,5.4H44.422V41.772L33.38,49.449l-4.5-3.492-.02-.014a1.432,1.432,0,0,0-1.737.014l-4.535,3.517L11.534,41.836ZM8.668,33.337v6.518L3.953,36.6Zm-5.8,6L20.21,51.317,2.9,64.741Zm2.8,26.89L28,48.9,50.25,66.162ZM35.753,51.29l17.3-12.026.035,25.471Z" transform="translate(0 -16.814)"/></g><g transform="translate(16.844 31.12)"><path class="a" d="M174.958,147.713h-19.4a1.433,1.433,0,0,0,0,2.866h19.4a1.433,1.433,0,0,0,0-2.866Z" transform="translate(-154.122 -147.713)"/></g><g transform="translate(16.844 38.571)"><path class="a" d="M174.958,215.895h-19.4a1.433,1.433,0,0,0,0,2.866h19.4a1.433,1.433,0,0,0,0-2.866Z" transform="translate(-154.122 -215.895)"/></g></g></svg>