<svg xmlns="http://www.w3.org/2000/svg" viewBox="0 0 49.051 48.352"><defs><style>.a,.e{fill:none;}.a,.b,.c{stroke:#2bc998;}.a,.b{stroke-width:2px;}.b,.c{fill:rgba(43,201,152,0.57);}.c{stroke-width:1.3px;}.d{stroke:none;}</style></defs><g transform="translate(-1386.199 1379.907)"><path class="a" d="M1397.333-1361.744l4.9,5.086,18.309-13.593,18.217,13.593,4.624-5.086-22.84-16.922Z" transform="translate(-9.616 0)"/><g class="b" transform="translate(1387 -1349.075)"><rect class="d" width="10.264" height="17.408"/><rect class="e" x="1" y="1" width="8.264" height="15.408"/></g><path class="a" d="M1521.333-916.321s7.49-.277,8.785,0,9.525,6.38,9.525,6.38l-2.127,3.052-7.4-3.052" transform="translate(-125.016 -430.165)"/><path class="a" d="M1528.2-914.562l4.339,1.778h15.009s.64.071,2.063-.925,10.954-9.532,10.954-9.532a2.355,2.355,0,0,0,0-3.272,3.334,3.334,0,0,0-3.272-1l-8.251,6.829" transform="translate(-131.412 -419.775)"/><path class="a" d="M1961.026-1091.282v11.239" transform="translate(-534.215 -267.453)"/><path class="a" d="M1961.026-1091.282v11.239" transform="translate(-566.395 -267.314)"/><path class="b" d="M1902.564-1317.428v-4.624h5.761v8.536Z" transform="translate(-479.808 -52.688)"/><g class="c" transform="translate(1416.554 -1356.373)"><rect class="d" width="6.103" height="5.895"/><rect class="e" x="0.65" y="0.65" width="4.803" height="4.595"/></g><path class="b" d="M1592.912-1026.131c-.108-.013,0-7.923,0-7.923h8.33v10.971S1596.225-1026.052,1592.912-1026.131Z" transform="translate(-191.587 -320.711)"/></g></svg>