<svg xmlns="http://www.w3.org/2000/svg" viewBox="0 0 49 49"><defs><style>.a{fill:rgba(43,201,152,0.57);}.b{fill:#2bc998;}</style></defs><g transform="translate(0 8.709)"><circle class="a" cx="3.728" cy="3.728" r="3.728" transform="translate(19.174 1.943)"/><path class="b" d="M47.318,104.165a1.436,1.436,0,1,0-2.03,2.03,2.852,2.852,0,0,1,.841,2.03,2.959,2.959,0,0,1-2.967,2.871H43.1c0-.015,0-.031,0-.046a15.336,15.336,0,0,0-5.243-10.142,16.85,16.85,0,0,0-9.048-4.04c0-.042,0-.085,0-.127a5.742,5.742,0,0,0-11.484,0c0,.022,0,.044,0,.065a15.742,15.742,0,0,0-2.576.449A9.9,9.9,0,0,0,7.273,93.87a1.436,1.436,0,0,0-1.416,1.672l1.089,6.531a15.531,15.531,0,0,0-3.4,6.22A4.314,4.314,0,0,0,0,112.532V115.4a4.316,4.316,0,0,0,4.223,4.307H4.69a15.873,15.873,0,0,0,4.019,5v5.141a1.436,1.436,0,0,0,1.436,1.436h5.742a1.436,1.436,0,0,0,1.436-1.436v-1.531h8.613v1.531a1.436,1.436,0,0,0,1.436,1.436h5.742a1.436,1.436,0,0,0,1.436-1.436V126.6a15.793,15.793,0,0,0,8.545-12.634h.068a5.852,5.852,0,0,0,4.093-1.667A5.644,5.644,0,0,0,49,108.226,5.7,5.7,0,0,0,47.318,104.165ZM23.064,93.87a2.871,2.871,0,1,1-2.871,2.871A2.874,2.874,0,0,1,23.064,93.87Zm9.474,30.507a1.436,1.436,0,0,0-.861,1.315v2.726H28.807v-4.4a1.436,1.436,0,1,0-2.871,0v1.436H17.322v-1.723a1.436,1.436,0,1,0-2.871,0v4.689H11.58v-4.4a1.436,1.436,0,0,0-.573-1.148A12.982,12.982,0,0,1,6.913,117.7a1.435,1.435,0,0,0-1.314-.861H4.307A1.437,1.437,0,0,1,2.871,115.4v-2.871A1.437,1.437,0,0,1,4.306,111.1h.383a1.436,1.436,0,0,0,1.407-1.15,12.686,12.686,0,0,1,3.4-6.4,1.436,1.436,0,0,0,.394-1.244L9,96.954a7.183,7.183,0,0,1,4.066,2.793,1.436,1.436,0,0,0,1.615.52,12.872,12.872,0,0,1,3.421-.637,5.737,5.737,0,0,0,9.9.038,13.176,13.176,0,0,1,12.233,11.644A12.94,12.94,0,0,1,32.538,124.378Z" transform="translate(0 -90.999)"/></g><g transform="translate(8.709 2.13)"><circle class="b" cx="1.436" cy="1.436" r="1.436" transform="translate(0 23.805)"/><circle class="a" cx="4.261" cy="4.261" r="4.261" transform="translate(22.182)"/></g><g transform="translate(17.322 23.064)"><path class="b" d="M191.049,241h-8.613a1.436,1.436,0,0,0,0,2.871h8.613a1.436,1.436,0,0,0,0-2.871Z" transform="translate(-181 -241)"/></g><g transform="translate(28.807)"><path class="b" d="M306.742,0a5.742,5.742,0,1,0,5.742,5.742A5.749,5.749,0,0,0,306.742,0Zm0,8.613a2.871,2.871,0,1,1,2.871-2.871A2.874,2.874,0,0,1,306.742,8.613Z" transform="translate(-301)"/></g></svg>