<svg xmlns="http://www.w3.org/2000/svg" viewBox="0 0 68.16 36.539"><defs><style>.a{fill:rgba(43,201,152,0.57);}.b{fill:#2bc998;}</style></defs><g transform="translate(0 -118.767)"><g transform="translate(12.198 143.986)"><g transform="translate(0 0)"><circle class="a" cx="6.5" cy="6.5" r="6.5" transform="translate(36.802 -3.219)"/><circle class="a" cx="6.5" cy="6.5" r="6.5" transform="translate(-2.198 -3.219)"/><path class="b" d="M97.521,311.787a1.075,1.075,0,0,0-1.469.392A1.218,1.218,0,1,1,95,310.352a1.075,1.075,0,1,0,0-2.149,3.367,3.367,0,1,0,2.916,5.053A1.075,1.075,0,0,0,97.521,311.787Z" transform="translate(-91.63 -308.203)"/></g></g><g transform="translate(52.319 143.985)"><path class="b" d="M398.9,311.786a1.075,1.075,0,0,0-1.468.392,1.218,1.218,0,1,1-1.056-1.826,1.075,1.075,0,0,0,0-2.149,3.367,3.367,0,1,0,2.916,5.052A1.074,1.074,0,0,0,398.9,311.786Z" transform="translate(-393.008 -308.202)"/></g><g transform="translate(0 118.767)"><g transform="translate(0 0)"><path class="b" d="M68.146,145.946a12.5,12.5,0,0,0-1.207-4.134,3.5,3.5,0,0,0,.8-2.436,6.184,6.184,0,0,0-.984-3.159,4.534,4.534,0,0,0-3.8-2.234c-3.883-3.2-11.786-3.693-15.053-3.756a1.2,1.2,0,0,1-1.053-.672l-3.83-7.659a5.629,5.629,0,0,0-5.062-3.129h-2.9a41.148,41.148,0,0,0-15.993,2.969,31.671,31.671,0,0,0-10.488,7.111A33.1,33.1,0,0,0,.079,144.354a3.324,3.324,0,0,0,.659,2.811,3.363,3.363,0,0,0,2.634,1.262H7.687a7.951,7.951,0,0,0,15.756,0H47.808a7.951,7.951,0,0,0,15.756,0h2.367a2.233,2.233,0,0,0,2.215-2.482Zm-5.828-9.711a2.239,2.239,0,0,1,2.629,1.148,4.034,4.034,0,0,1,.64,2.028c0,.079,0,.155-.007.229a12.553,12.553,0,0,0-3.635-3.154A1.289,1.289,0,0,1,62.318,136.235ZM15.565,153.156a5.8,5.8,0,1,1,5.8-5.8A5.81,5.81,0,0,1,15.565,153.156Zm40.121,0a5.8,5.8,0,1,1,5.8-5.8A5.81,5.81,0,0,1,55.686,153.156Zm10.3-6.9a.071.071,0,0,1-.056.026H63.564a7.951,7.951,0,0,0-15.756,0H23.443a7.951,7.951,0,0,0-15.756,0H3.372a1.234,1.234,0,0,1-.4-.066c2.407-5.631,7.308-9.247,12.593-9.247a10.4,10.4,0,0,1,9.523,6.229,1.075,1.075,0,1,0,1.969-.861,12.544,12.544,0,0,0-11.492-7.517A15.512,15.512,0,0,0,3.135,141.58a31.525,31.525,0,0,1,6.976-11.233c6.1-6.258,14.491-9.431,24.941-9.431h2.9a3.492,3.492,0,0,1,3.14,1.941l3.83,7.659a3.347,3.347,0,0,0,2.934,1.86,44.721,44.721,0,0,1,7.01.681,18.613,18.613,0,0,1,5.628,1.845,4.255,4.255,0,0,0-.585.642,12.548,12.548,0,0,0-15.714,6.793,1.075,1.075,0,1,0,1.969.861,10.391,10.391,0,0,1,19.848,2.987A.083.083,0,0,1,65.988,146.252Z" transform="translate(0 -118.767)"/></g></g><g transform="translate(16.506 122.206)"><g transform="translate(0 0)"><path class="b" d="M150.4,153.274l-3.141-7.329a2.218,2.218,0,0,0-2.041-1.346H141.39c-7.748,0-13.72,2.872-16.48,5.332a2.734,2.734,0,0,0-.736,3.038,2.775,2.775,0,0,0,2.61,1.8h22.63a1.075,1.075,0,0,0,.988-1.5Zm-14.672-.652h-8.946a.633.633,0,0,1-.6-.42.584.584,0,0,1,.157-.668,21.05,21.05,0,0,1,9.39-4.209v5.3Zm2.149,0V146.97a28.084,28.084,0,0,1,3.511-.222h3.829a.072.072,0,0,1,.066.043l2.5,5.831Z" transform="translate(-123.99 -144.599)"/><path class="a" d="M25.027,9.087l-3.27-7.866S1.522.452,1.269,8.833C3.6,8.833,25.027,9.087,25.027,9.087Z"/></g></g></g></svg>