<svg xmlns="http://www.w3.org/2000/svg" viewBox="0 0 36.608 36.612"><defs><style>.a{fill:#86e0c4;}.b{fill:#2bc998;}</style></defs><g transform="translate(-0.027 0)"><g transform="translate(0.027 0)"><g transform="translate(0)"><rect class="a" width="31.927" height="4.561" transform="translate(1.033 31.118)"/><rect class="a" width="13.683" height="9.122" rx="4" transform="translate(22.013 18.347)"/><path class="b" d="M34.49,17.42V12.767a3.223,3.223,0,0,0-2.145-3.033V8.476A3.246,3.246,0,0,0,29.128,5.23H25.1L20.162.318a1.073,1.073,0,0,0-1.517,0L16.186,2.777,13.727.318A1.1,1.1,0,0,0,12.213.287L7.233,5.23H3.245A3.2,3.2,0,0,0,.027,8.476V33.4a3.221,3.221,0,0,0,3.218,3.218H31.273A3.221,3.221,0,0,0,34.49,33.4V27.777a3.223,3.223,0,0,0,2.145-3.033v-4.29A3.223,3.223,0,0,0,34.49,17.42ZM29.128,7.361A1.111,1.111,0,0,1,30.2,8.476V9.585h-.771L27.248,7.361h1.88ZM19.4,2.593,21.515,4.7a4.293,4.293,0,0,1-4.222,0Zm0,4.811a6.4,6.4,0,0,0,3.665-1.146L26.4,9.585H12.412l3.327-3.327A6.4,6.4,0,0,0,19.4,7.4ZM12.966,2.591l1.7,1.7L9.378,9.585H5.919ZM3.245,7.361H5.071L2.926,9.533a1.123,1.123,0,0,1-.754-1.057A1.111,1.111,0,0,1,3.245,7.361ZM32.345,33.4a1.074,1.074,0,0,1-1.072,1.072H3.245A1.074,1.074,0,0,1,2.172,33.4V32.323H32.345Zm0-3.218H2.172V11.544a3.17,3.17,0,0,0,1.072.187H31.273a1.076,1.076,0,0,0,.192-.018,1.074,1.074,0,0,1,.88,1.054v4.469H26.911a5.363,5.363,0,1,0,0,10.725h5.434v2.217Zm2.145-5.434a1.074,1.074,0,0,1-1.072,1.072H26.911a3.218,3.218,0,1,1,0-6.435h6.507a1.074,1.074,0,0,1,1.072,1.072Z" transform="translate(-0.027 0)"/></g></g><g transform="translate(25.839 21.526)"><circle class="b" cx="1.072" cy="1.072" r="1.072"/></g></g></svg>