<svg xmlns="http://www.w3.org/2000/svg" viewBox="5861 5458 46 46">
  <defs>
    <style>
      .cls-1 {
        fill: rgba(43,201,152,0.57);
      }

      .cls-2 {
        fill: #fff;
      }
    </style>
  </defs>
  <g id="pinterst" transform="translate(5493 1914)">
    <circle id="Ellipse_4" data-name="Ellipse 4" class="cls-1" cx="23" cy="23" r="23" transform="translate(368 3544)"/>
    <path id="pinterest-p" class="cls-2" d="M256,12.557a11.6,11.6,0,0,1,.789-4.28,10.978,10.978,0,0,1,2.177-3.5A14.863,14.863,0,0,1,266.054.547,16.657,16.657,0,0,1,270.3,0a13.888,13.888,0,0,1,6.184,1.4,11.678,11.678,0,0,1,4.649,4.07,10.607,10.607,0,0,1,1.788,6.037,19.5,19.5,0,0,1-.4,3.954,15.974,15.974,0,0,1-1.262,3.723,12.971,12.971,0,0,1-2.1,3.145,9.125,9.125,0,0,1-3.05,2.166,9.618,9.618,0,0,1-3.975.81,6.533,6.533,0,0,1-2.84-.673,4.219,4.219,0,0,1-2.019-1.851q-.21.82-.589,2.366t-.494,2q-.116.452-.431,1.493a9.916,9.916,0,0,1-.547,1.493l-.673,1.315a14.894,14.894,0,0,1-.968,1.63q-.526.768-1.3,1.819l-.295.105-.189-.21q-.315-3.3-.316-3.954a23.761,23.761,0,0,1,.452-4.343q.452-2.408,1.4-6.047t1.094-4.27a8.073,8.073,0,0,1-.673-3.555,5.554,5.554,0,0,1,1.094-3.281A3.29,3.29,0,0,1,267.611,7.8a2.466,2.466,0,0,1,2,.852,3.238,3.238,0,0,1,.715,2.156,13.314,13.314,0,0,1-.926,4.017,13.274,13.274,0,0,0-.925,3.933,2.863,2.863,0,0,0,.946,2.2,3.261,3.261,0,0,0,2.293.873,4.5,4.5,0,0,0,2.145-.526,4.837,4.837,0,0,0,1.651-1.43,12.09,12.09,0,0,0,1.178-2,11.506,11.506,0,0,0,.8-2.324,22.954,22.954,0,0,0,.421-2.335,17.075,17.075,0,0,0,.137-2.093,7.159,7.159,0,0,0-2.3-5.669,8.748,8.748,0,0,0-6.005-2.03,9.71,9.71,0,0,0-7.025,2.724,9.2,9.2,0,0,0-2.819,6.91,6.1,6.1,0,0,0,.263,1.788,6.175,6.175,0,0,0,.568,1.367q.3.5.568.957a1.592,1.592,0,0,1,.263.642,5.123,5.123,0,0,1-.315,1.535q-.316.947-.778.947-.042,0-.358-.063a4.3,4.3,0,0,1-1.9-1.178,6.132,6.132,0,0,1-1.283-1.988,12.96,12.96,0,0,1-.684-2.272A11.306,11.306,0,0,1,256,12.557Z" transform="translate(121.278 3555)"/>
  </g>
</svg>
