<svg xmlns="http://www.w3.org/2000/svg" viewBox="5795 5458 46 46">
  <defs>
    <style>
      .cls-1 {
        fill: rgba(43,201,152,0.57);
      }

      .cls-2 {
        fill: #fff;
      }
    </style>
  </defs>
  <g id="Group_61" data-name="Group 61" transform="translate(5493 1914)">
    <circle id="Ellipse_4" data-name="Ellipse 4" class="cls-1" cx="23" cy="23" r="23" transform="translate(302 3544)"/>
    <path id="twitter" class="cls-2" d="M131.643,258.28a10.153,10.153,0,0,1-2.43,2.505q.015.21.015.63a13.765,13.765,0,0,1-.57,3.893,14.068,14.068,0,0,1-1.733,3.728,14.655,14.655,0,0,1-2.768,3.158,12.323,12.323,0,0,1-3.87,2.19,14.164,14.164,0,0,1-4.846.818A13.456,13.456,0,0,1,108,273.027a10.363,10.363,0,0,0,1.17.06,9.487,9.487,0,0,0,6.016-2.07,4.856,4.856,0,0,1-4.531-3.36,6.137,6.137,0,0,0,.915.075,5.013,5.013,0,0,0,1.275-.165,4.767,4.767,0,0,1-2.783-1.673,4.682,4.682,0,0,1-1.1-3.083v-.06a4.807,4.807,0,0,0,2.19.615,4.84,4.84,0,0,1-1.575-1.725,4.857,4.857,0,0,1,.075-4.756,13.736,13.736,0,0,0,4.418,3.578,13.5,13.5,0,0,0,5.573,1.493,5.383,5.383,0,0,1-.12-1.11,4.85,4.85,0,0,1,8.386-3.315,9.5,9.5,0,0,0,3.075-1.17,4.7,4.7,0,0,1-2.13,2.67A9.654,9.654,0,0,0,131.643,258.28Z" transform="translate(206.072 3302.541)"/>
  </g>
</svg>
